<mxfile host="app.diagrams.net" modified="2022-11-09T09:47:15.669Z" agent="5.0 (Windows NT 10.0; Win64; x64) AppleWebKit/537.36 (KHTML, like Gecko) Chrome/107.0.0.0 Safari/537.36 Edg/107.0.1418.26" etag="ZSOM3HO_npkfhqiBt_qZ" version="20.5.1" type="github">
  <diagram id="C5RBs43oDa-KdzZeNtuy" name="Page-1">
    <mxGraphModel dx="1038" dy="579" grid="1" gridSize="10" guides="1" tooltips="1" connect="1" arrows="1" fold="1" page="1" pageScale="1" pageWidth="827" pageHeight="1169" math="0" shadow="0">
      <root>
        <mxCell id="WIyWlLk6GJQsqaUBKTNV-0" />
        <mxCell id="WIyWlLk6GJQsqaUBKTNV-1" parent="WIyWlLk6GJQsqaUBKTNV-0" />
        <mxCell id="wmS9uaYeB3LbZgUTADnC-2" style="edgeStyle=orthogonalEdgeStyle;rounded=0;orthogonalLoop=1;jettySize=auto;html=1;exitX=0.5;exitY=1;exitDx=0;exitDy=0;entryX=0.5;entryY=0;entryDx=0;entryDy=0;" edge="1" parent="WIyWlLk6GJQsqaUBKTNV-1" source="wmS9uaYeB3LbZgUTADnC-0" target="wmS9uaYeB3LbZgUTADnC-3">
          <mxGeometry relative="1" as="geometry">
            <mxPoint x="280" y="360" as="targetPoint" />
          </mxGeometry>
        </mxCell>
        <mxCell id="wmS9uaYeB3LbZgUTADnC-0" value="能源局接口调用" style="rounded=1;whiteSpace=wrap;html=1;" vertex="1" parent="WIyWlLk6GJQsqaUBKTNV-1">
          <mxGeometry x="220" y="340" width="120" height="60" as="geometry" />
        </mxCell>
        <mxCell id="wmS9uaYeB3LbZgUTADnC-6" style="edgeStyle=orthogonalEdgeStyle;rounded=0;orthogonalLoop=1;jettySize=auto;html=1;exitX=0.5;exitY=1;exitDx=0;exitDy=0;" edge="1" parent="WIyWlLk6GJQsqaUBKTNV-1" source="wmS9uaYeB3LbZgUTADnC-3" target="wmS9uaYeB3LbZgUTADnC-5">
          <mxGeometry relative="1" as="geometry" />
        </mxCell>
        <mxCell id="wmS9uaYeB3LbZgUTADnC-7" value="白名单，通过" style="edgeLabel;html=1;align=center;verticalAlign=middle;resizable=0;points=[];" vertex="1" connectable="0" parent="wmS9uaYeB3LbZgUTADnC-6">
          <mxGeometry x="-0.2356" y="3" relative="1" as="geometry">
            <mxPoint as="offset" />
          </mxGeometry>
        </mxCell>
        <mxCell id="wmS9uaYeB3LbZgUTADnC-3" value="省平台用户登陆权限验证" style="rounded=1;whiteSpace=wrap;html=1;" vertex="1" parent="WIyWlLk6GJQsqaUBKTNV-1">
          <mxGeometry x="220" y="490" width="120" height="60" as="geometry" />
        </mxCell>
        <mxCell id="wmS9uaYeB3LbZgUTADnC-9" style="edgeStyle=orthogonalEdgeStyle;rounded=0;orthogonalLoop=1;jettySize=auto;html=1;exitX=0.5;exitY=1;exitDx=0;exitDy=0;entryX=0.5;entryY=0;entryDx=0;entryDy=0;" edge="1" parent="WIyWlLk6GJQsqaUBKTNV-1" source="wmS9uaYeB3LbZgUTADnC-5" target="wmS9uaYeB3LbZgUTADnC-8">
          <mxGeometry relative="1" as="geometry" />
        </mxCell>
        <mxCell id="wmS9uaYeB3LbZgUTADnC-5" value="投审平台接口API" style="rounded=1;whiteSpace=wrap;html=1;" vertex="1" parent="WIyWlLk6GJQsqaUBKTNV-1">
          <mxGeometry x="220" y="640" width="120" height="60" as="geometry" />
        </mxCell>
        <mxCell id="wmS9uaYeB3LbZgUTADnC-12" style="edgeStyle=orthogonalEdgeStyle;rounded=0;orthogonalLoop=1;jettySize=auto;html=1;exitX=0.5;exitY=1;exitDx=0;exitDy=0;entryX=0.5;entryY=0;entryDx=0;entryDy=0;" edge="1" parent="WIyWlLk6GJQsqaUBKTNV-1" source="wmS9uaYeB3LbZgUTADnC-8" target="wmS9uaYeB3LbZgUTADnC-11">
          <mxGeometry relative="1" as="geometry" />
        </mxCell>
        <mxCell id="wmS9uaYeB3LbZgUTADnC-8" value="请求拦截器" style="rounded=1;whiteSpace=wrap;html=1;" vertex="1" parent="WIyWlLk6GJQsqaUBKTNV-1">
          <mxGeometry x="220" y="770" width="120" height="60" as="geometry" />
        </mxCell>
        <mxCell id="wmS9uaYeB3LbZgUTADnC-15" style="edgeStyle=orthogonalEdgeStyle;rounded=0;orthogonalLoop=1;jettySize=auto;html=1;exitX=0;exitY=0.5;exitDx=0;exitDy=0;entryX=0.5;entryY=0;entryDx=0;entryDy=0;" edge="1" parent="WIyWlLk6GJQsqaUBKTNV-1" source="wmS9uaYeB3LbZgUTADnC-11" target="wmS9uaYeB3LbZgUTADnC-13">
          <mxGeometry relative="1" as="geometry" />
        </mxCell>
        <mxCell id="wmS9uaYeB3LbZgUTADnC-17" value="是" style="edgeLabel;html=1;align=center;verticalAlign=middle;resizable=0;points=[];" vertex="1" connectable="0" parent="wmS9uaYeB3LbZgUTADnC-15">
          <mxGeometry x="-0.2233" y="2" relative="1" as="geometry">
            <mxPoint as="offset" />
          </mxGeometry>
        </mxCell>
        <mxCell id="wmS9uaYeB3LbZgUTADnC-16" style="edgeStyle=orthogonalEdgeStyle;rounded=0;orthogonalLoop=1;jettySize=auto;html=1;exitX=1;exitY=0.5;exitDx=0;exitDy=0;entryX=0.5;entryY=0;entryDx=0;entryDy=0;" edge="1" parent="WIyWlLk6GJQsqaUBKTNV-1" source="wmS9uaYeB3LbZgUTADnC-11" target="wmS9uaYeB3LbZgUTADnC-28">
          <mxGeometry relative="1" as="geometry">
            <mxPoint x="410" y="1000" as="targetPoint" />
          </mxGeometry>
        </mxCell>
        <mxCell id="wmS9uaYeB3LbZgUTADnC-18" value="否" style="edgeLabel;html=1;align=center;verticalAlign=middle;resizable=0;points=[];" vertex="1" connectable="0" parent="wmS9uaYeB3LbZgUTADnC-16">
          <mxGeometry x="-0.6554" relative="1" as="geometry">
            <mxPoint as="offset" />
          </mxGeometry>
        </mxCell>
        <mxCell id="wmS9uaYeB3LbZgUTADnC-11" value="是否包含请求头参数 x-time, x-token" style="rhombus;whiteSpace=wrap;html=1;" vertex="1" parent="WIyWlLk6GJQsqaUBKTNV-1">
          <mxGeometry x="220" y="890" width="120" height="100" as="geometry" />
        </mxCell>
        <mxCell id="wmS9uaYeB3LbZgUTADnC-22" style="edgeStyle=orthogonalEdgeStyle;rounded=0;orthogonalLoop=1;jettySize=auto;html=1;exitX=0.5;exitY=1;exitDx=0;exitDy=0;entryX=0.5;entryY=0;entryDx=0;entryDy=0;" edge="1" parent="WIyWlLk6GJQsqaUBKTNV-1" source="wmS9uaYeB3LbZgUTADnC-13" target="wmS9uaYeB3LbZgUTADnC-21">
          <mxGeometry relative="1" as="geometry" />
        </mxCell>
        <mxCell id="wmS9uaYeB3LbZgUTADnC-25" value="x-time 验证" style="edgeLabel;html=1;align=center;verticalAlign=middle;resizable=0;points=[];" vertex="1" connectable="0" parent="wmS9uaYeB3LbZgUTADnC-22">
          <mxGeometry x="-0.1813" y="-3" relative="1" as="geometry">
            <mxPoint as="offset" />
          </mxGeometry>
        </mxCell>
        <mxCell id="wmS9uaYeB3LbZgUTADnC-13" value="验证 x-time,x-token" style="rounded=1;whiteSpace=wrap;html=1;" vertex="1" parent="WIyWlLk6GJQsqaUBKTNV-1">
          <mxGeometry x="100" y="1000" width="120" height="60" as="geometry" />
        </mxCell>
        <mxCell id="wmS9uaYeB3LbZgUTADnC-32" style="edgeStyle=orthogonalEdgeStyle;rounded=0;orthogonalLoop=1;jettySize=auto;html=1;exitX=1;exitY=0.5;exitDx=0;exitDy=0;entryX=0.5;entryY=0;entryDx=0;entryDy=0;" edge="1" parent="WIyWlLk6GJQsqaUBKTNV-1" source="wmS9uaYeB3LbZgUTADnC-21" target="wmS9uaYeB3LbZgUTADnC-28">
          <mxGeometry relative="1" as="geometry" />
        </mxCell>
        <mxCell id="wmS9uaYeB3LbZgUTADnC-33" value="否" style="edgeLabel;html=1;align=center;verticalAlign=middle;resizable=0;points=[];" vertex="1" connectable="0" parent="wmS9uaYeB3LbZgUTADnC-32">
          <mxGeometry x="0.0612" y="-1" relative="1" as="geometry">
            <mxPoint as="offset" />
          </mxGeometry>
        </mxCell>
        <mxCell id="wmS9uaYeB3LbZgUTADnC-41" style="edgeStyle=orthogonalEdgeStyle;rounded=0;orthogonalLoop=1;jettySize=auto;html=1;exitX=0.5;exitY=1;exitDx=0;exitDy=0;" edge="1" parent="WIyWlLk6GJQsqaUBKTNV-1" source="wmS9uaYeB3LbZgUTADnC-21" target="wmS9uaYeB3LbZgUTADnC-40">
          <mxGeometry relative="1" as="geometry" />
        </mxCell>
        <mxCell id="wmS9uaYeB3LbZgUTADnC-42" value="是" style="edgeLabel;html=1;align=center;verticalAlign=middle;resizable=0;points=[];" vertex="1" connectable="0" parent="wmS9uaYeB3LbZgUTADnC-41">
          <mxGeometry x="-0.2311" y="1" relative="1" as="geometry">
            <mxPoint as="offset" />
          </mxGeometry>
        </mxCell>
        <mxCell id="wmS9uaYeB3LbZgUTADnC-21" value="是否为当前时间5分钟内的时间戳" style="rhombus;whiteSpace=wrap;html=1;" vertex="1" parent="WIyWlLk6GJQsqaUBKTNV-1">
          <mxGeometry x="90" y="1140" width="140" height="80" as="geometry" />
        </mxCell>
        <mxCell id="wmS9uaYeB3LbZgUTADnC-28" value="返回报错信息" style="rounded=1;whiteSpace=wrap;html=1;" vertex="1" parent="WIyWlLk6GJQsqaUBKTNV-1">
          <mxGeometry x="400" y="1290" width="120" height="60" as="geometry" />
        </mxCell>
        <mxCell id="wmS9uaYeB3LbZgUTADnC-39" value="接口调用验证通过" style="rounded=1;whiteSpace=wrap;html=1;" vertex="1" parent="WIyWlLk6GJQsqaUBKTNV-1">
          <mxGeometry x="100" y="1460" width="120" height="60" as="geometry" />
        </mxCell>
        <mxCell id="wmS9uaYeB3LbZgUTADnC-43" style="edgeStyle=orthogonalEdgeStyle;rounded=0;orthogonalLoop=1;jettySize=auto;html=1;exitX=0.5;exitY=1;exitDx=0;exitDy=0;" edge="1" parent="WIyWlLk6GJQsqaUBKTNV-1" source="wmS9uaYeB3LbZgUTADnC-40" target="wmS9uaYeB3LbZgUTADnC-39">
          <mxGeometry relative="1" as="geometry" />
        </mxCell>
        <mxCell id="wmS9uaYeB3LbZgUTADnC-44" value="是" style="edgeLabel;html=1;align=center;verticalAlign=middle;resizable=0;points=[];" vertex="1" connectable="0" parent="wmS9uaYeB3LbZgUTADnC-43">
          <mxGeometry x="-0.212" y="-1" relative="1" as="geometry">
            <mxPoint as="offset" />
          </mxGeometry>
        </mxCell>
        <mxCell id="wmS9uaYeB3LbZgUTADnC-45" style="edgeStyle=orthogonalEdgeStyle;rounded=0;orthogonalLoop=1;jettySize=auto;html=1;exitX=1;exitY=0.5;exitDx=0;exitDy=0;entryX=0;entryY=0.5;entryDx=0;entryDy=0;" edge="1" parent="WIyWlLk6GJQsqaUBKTNV-1" source="wmS9uaYeB3LbZgUTADnC-40" target="wmS9uaYeB3LbZgUTADnC-28">
          <mxGeometry relative="1" as="geometry" />
        </mxCell>
        <mxCell id="wmS9uaYeB3LbZgUTADnC-40" value="和已配置提供的token是否一致" style="rhombus;whiteSpace=wrap;html=1;" vertex="1" parent="WIyWlLk6GJQsqaUBKTNV-1">
          <mxGeometry x="90" y="1280" width="140" height="80" as="geometry" />
        </mxCell>
      </root>
    </mxGraphModel>
  </diagram>
</mxfile>
